<svg xmlns="http://www.w3.org/2000/svg" viewBox="0 0 100 100">
  <path
    fill="none"
    stroke="currentColor"
    stroke-width="20"
    transform="translate(50,50) scale(0.4) translate(-50,-50) translate(-42,0)"
    d="
      M 80 18
      C 70 14 62 10 50 10
      C 42 10 22 14 22 30
      C 22 46 38 48.4 50 50
      C 62 51.6 78 54 78 70
      C 78 86 59 90 50 90
      C 38 90 30 86 20 82
    "
  ></path>
  <path
    fill="none"
    stroke="currentColor"
    stroke-width="20"
    stroke-linecap="square"
    transform="translate(50,50) scale(0.4) translate(-50,-50) translate(42,0)"
    d="
      M 75 10
      L 25 10
      L 25 90
      L 75 90
      M 30 50
      L 65 50
    "
  ></path>
</svg>
