<?xml version='1.0' encoding='utf-8'?>
<!DOCTYPE svg PUBLIC '-//W3C//DTD SVG 1.1//EN' 'http://www.w3.org/Graphics/SVG/1.1/DTD/svg11.dtd'>
<svg version="1.1" xmlns="http://www.w3.org/2000/svg" viewBox="0 0 512 512" xmlns:xlink="http://www.w3.org/1999/xlink" enable-background="new 0 0 512 512">
  <g>
    <g>
      <g>
        <path d="m476.2,239.8c-0.4,0-0.8,0-1.2,0-10.7,0.3-19.5,8.9-19.8,19.8-2.9,92.9-67.6,172-157.4,192.5-77.4,17.6-156.7-12.2-204.1-73.7l59.1,12.4c11,2.3 21.9-4.8 24.2-15.8 2.3-11-4.7-21.9-15.8-24.2l-103.9-21.8c-16.5-2.5-23.6,10.3-24.2,15.9l-21.6,104.6c-2.3,11 4.8,21.8 15.9,24.1 11,2.3 21.8-4.8 24.1-15.9l11-53.1c57.2,73 151.9,108.3 244.5,87.2 107.9-24.6 185.6-119.6 189.1-231 0.2-11.2-8.6-20.6-19.9-21z"/>
        <path d="m485.3,41.4c-11-2.6-22,4.2-24.5,15.2l-12.4,52.8c-55.2-74.5-148.9-112.3-242-93.7-108.6,21.7-188.9,114.6-195.3,225.9-0.7,11.3 7.9,20.9 19.2,21.6 0.4,0 0.8,0 1.2,0 10.7,0 19.7-8.4 20.4-19.2 5.3-92.8 72.1-170.2 162.4-188.2 77.9-15.6 156.3,16.4 202.1,79.2l-58.7-14c-11-2.6-22,4.2-24.6,15.1-2.6,11 4.2,22 15.1,24.6l103.3,24.6c16.4,3 23.9-9.7 24.6-15.2l24.4-104.1c2.6-11-4.2-22-15.2-24.6z"/>
      </g>
    </g>
  </g>
</svg>
