<svg xmlns="http://www.w3.org/2000/svg" viewBox="0 0 100 100">
  <defs>
    <linearGradient id="gradient" x1="0" y1="0" x2="1" y2="0">
      <stop offset="0%" stop-color="#e91e63" />
      <stop offset="100%" stop-color="#c341d8" />
    </linearGradient>
  </defs>
  <path
    fill="none"
    stroke="url(#gradient)"
    stroke-width="5"
    stroke-linecap="round"
    stroke-linejoin="round"
    stroke-dasharray="2 9"
    d="
      M 50 85
      A 35 35 0 0 0 85 50
    "
  ></path>
  <path
    fill="none"
    stroke="url(#gradient)"
    stroke-width="5"
    stroke-linecap="round"
    stroke-linejoin="round"
    d="
      M 85 50
      A 35 35 0 1 0 15 50
      M 8 40
      L 15 50
      L 24 42
    "
  ></path>

  <!-- Modified from https://fontawesome.com/icons/prescription-bottle-alt -->
  <g transform="translate(35,32) scale(0.075)">
    <path
      fill="url(#gradient)"
      d="M360 0H24C10.8 0 0 10.8 0 24v48c0 13.2 10.8 24 24 24h336c13.2 0 24-10.8 24-24V24c0-13.2-10.8-24-24-24zM32 480c0 17.6 14.4 32 32 32h256c17.6 0 32-14.4 32-32V128H32v352zm64-184c0-4.4 3.6-8 8-8h56v-56c0-4.4 3.6-8 8-8h48c4.4 0 8 3.6 8 8v56h56c4.4 0 8 3.6 8 8v48c0 4.4-3.6 8-8 8h-56v56c0 4.4-3.6 8-8 8h-48c-4.4 0-8-3.6-8-8v-56h-56c-4.4 0-8-3.6-8-8v-48z"
    ></path>
  </g>
</svg>
