<svg xmlns="http://www.w3.org/2000/svg" viewBox="0 0 100 100">
  <g
    transform="translate(0,7) translate(50,50) scale(1.15) translate(-50,-50)"
  >
    <path
      stroke-width="4"
      stroke="#424242"
      fill="none"
      d="
        M 50 21.13
        A 50 50 0 0 1 75 64.43
      "
    ></path>
    <path
      stroke-width="4"
      stroke="#424242"
      fill="none"
      d="
        M 75 64.43
        A 50 50 0 0 1 25 64.43
      "
    ></path>
    <path
      stroke-width="4"
      stroke="#424242"
      fill="none"
      d="
        M 25 64.43
        A 50 50 0 0 1 50 21.13
      "
    ></path>
    <g transform="translate(50,21.13)">
      <circle cx="0" cy="0" r="9" fill="#02b3e4"></circle>
    </g>
    <g transform="translate(75,64.43)">
      <circle cx="0" cy="0" r="9" fill="#fa750f"></circle>
    </g>
    <g transform="translate(25,64.43)">
      <circle cx="0" cy="0" r="9" fill="#e91e63"></circle>
    </g>
  </g>
  <!-- Modified from https://fontawesome.com/icons/flask -->
  <g transform="translate(37.5,41) scale(0.055)">
    <path
      fill="#424242"
      d="M437.2 403.5L320 215V64h8c13.3 0 24-10.7 24-24V24c0-13.3-10.7-24-24-24H120c-13.3 0-24 10.7-24 24v16c0 13.3 10.7 24 24 24h8v151L10.8 403.5C-18.5 450.6 15.3 512 70.9 512h306.2c55.7 0 89.4-61.5 60.1-108.5zM137.9 320l48.2-77.6c3.7-5.2 5.8-11.6 5.8-18.4V64h64v160c0 6.9 2.2 13.2 5.8 18.4l48.2 77.6h-172z"
    ></path>
  </g>
</svg>
