<svg xmlns="http://www.w3.org/2000/svg" viewBox="0 0 100 100">
  <line
    x1="0"
    y1="100"
    x2="40"
    y2="60"
    stroke="lightgrey"
    stroke-width="1"
  ></line>
  <line
    x1="100"
    y1="0"
    x2="60"
    y2="40"
    stroke="lightgrey"
    stroke-width="1"
  ></line>
  <line
    x1="45"
    y1="45"
    x2="51"
    y2="51"
    stroke="#424242"
    stroke-width="5"
  ></line>
  <path
    fill="#424242"
    d="
      M 55 55
      L 46 54
      L 54 46
    "
  ></path>
  <g
    transform="translate(-25,-25) translate(50,50) rotate(45) scale(0.5) translate(-50,-50)"
  >
    <line
      x1="25"
      y1="25"
      x2="75"
      y2="25"
      stroke="#424242"
      stroke-width="6"
    ></line>
    <line
      x1="25"
      y1="75"
      x2="75"
      y2="75"
      stroke="#424242"
      stroke-width="6"
    ></line>
    <circle cx="25" cy="25" r="13" fill="#02b3e4"></circle>
    <circle cx="75" cy="25" r="13" fill="#e91e63"></circle>
    <circle cx="75" cy="75" r="13" fill="#fa750f"></circle>
    <circle cx="25" cy="75" r="13" fill="#c341d8"></circle>
  </g>
  <g
    transform="translate(25,25) translate(50,50) rotate(45) scale(0.5) translate(-50,-50)"
  >
    <line
      x1="25"
      y1="25"
      x2="75"
      y2="75"
      stroke="#424242"
      stroke-width="6"
    ></line>
    <line
      x1="25"
      y1="75"
      x2="75"
      y2="25"
      stroke="#424242"
      stroke-width="6"
    ></line>
    <circle cx="25" cy="25" r="13" fill="#02b3e4"></circle>
    <circle cx="75" cy="25" r="13" fill="#e91e63"></circle>
    <circle cx="75" cy="75" r="13" fill="#fa750f"></circle>
    <circle cx="25" cy="75" r="13" fill="#c341d8"></circle>
  </g>
</svg>
