<svg xmlns="http://www.w3.org/2000/svg" viewBox="0 0 100 100">
  <!-- Modified from https://fontawesome.com/icons/table -->
  <g transform="translate(24.5,15) scale(0.1)">
    <path
      fill="none"
      stroke="#404040"
      stroke-width="30"
      d="M464 32H48C21.49 32 0 53.49 0 80v352c0 26.51 21.49 48 48 48h416c26.51 0 48-21.49 48-48V80c0-26.51-21.49-48-48-48z"
    ></path>
    <path
      fill="#02b3e4"
      stroke="#02b3e4"
      stroke-width="20"
      d="M224 256H64v-96h160v96z"
    ></path>
    <path
      fill="#e91e63"
      stroke="#e91e63"
      stroke-width="20"
      d="M448 256H288v-96h160v96z"
    ></path>
    <path
      fill="#c341d8"
      stroke="#c341d8"
      stroke-width="20"
      d="M224 416H64v-96h160v96z"
    ></path>
    <path
      fill="#fa750f"
      stroke="#fa750f"
      stroke-width="20"
      d="M448 416H288v-96h160v96z"
    ></path>
  </g>
  <!-- Modified from https://fontawesome.com/icons/download -->
  <g transform="translate(37.25,68) scale(0.05)">
    <path
      fill="#303030"
      d="M216 0h80c13.3 0 24 10.7 24 24v168h87.7c17.8 0 26.7 21.5 14.1 34.1L269.7 378.3c-7.5 7.5-19.8 7.5-27.3 0L90.1 226.1c-12.6-12.6-3.7-34.1 14.1-34.1H192V24c0-13.3 10.7-24 24-24z"
    ></path>
  </g>
</svg>
